<svg width="495" height="362" xmlns="http://www.w3.org/2000/svg">
  <defs><style>
    * { font-family: 'Segoe UI', Ubuntu, 'Helvetica Neue', sans-serif; }
    .bg     { fill: #ffffff; }
    .border { fill: none; stroke: #d0d7de; stroke-width: 1; }
    .title  { font-size: 20px; font-weight: 700; fill: #1f2328; }
    .muted  { font-size: 12px; fill: #656d76; }
    .label  { font-size: 13px; fill: #1f2328; }
    .section{ font-size: 11px; font-weight: 600; letter-spacing: 1.5px; fill: #656d76; }
    .value  { font-size: 13px; font-weight: 700; fill: #0969da; }
    .green  { fill: #1a7f37; }
  </style></defs>
  <rect class="bg" width="495" height="362" rx="10"/>
  <rect class="border" x="0.5" y="0.5" width="494" height="361" rx="10"/>

  <text x="25" y="40" class="title">Muskanqed</text>
  <text x="25" y="58" class="muted">@muskanqed</text>
  <line x1="25" y1="74" x2="470" y2="74" stroke="#d0d7de" stroke-width="1"/>
  <text x="25" y="94" class="section">GITHUB STATS</text>
  
  <text x="25"  y="118" class="label">⭐  Total Stars</text>
  <text x="470" y="118" class="value" text-anchor="end">2</text>
  <line x1="25" y1="125" x2="470" y2="125" stroke="#eaeef2" stroke-width="1"/>

  <text x="25"  y="146" class="label">🍴  Total Forks</text>
  <text x="470" y="146" class="value" text-anchor="end">1</text>
  <line x1="25" y1="153" x2="470" y2="153" stroke="#eaeef2" stroke-width="1"/>

  <text x="25"  y="174" class="label">💻  Commits (this year)</text>
  <text x="470" y="174" class="value" text-anchor="end">536</text>
  <line x1="25" y1="181" x2="470" y2="181" stroke="#eaeef2" stroke-width="1"/>

  <text x="25"  y="202" class="label">🔃  Pull Requests</text>
  <text x="470" y="202" class="value" text-anchor="end">1</text>
  <line x1="25" y1="209" x2="470" y2="209" stroke="#eaeef2" stroke-width="1"/>

  <text x="25"  y="230" class="label">🐛  Issues Opened</text>
  <text x="470" y="230" class="value" text-anchor="end">0</text>
  <line x1="25" y1="237" x2="470" y2="237" stroke="#eaeef2" stroke-width="1"/>

  <text x="25"  y="258" class="label">👥  Followers</text>
  <text x="470" y="258" class="value" text-anchor="end">6</text>
  <line x1="25" y1="265" x2="470" y2="265" stroke="#eaeef2" stroke-width="1"/>

  <text x="25"  y="286" class="label">➕  Lines Added</text>
  <text x="470" y="286" class="value" text-anchor="end">+0</text>
  <line x1="25" y1="293" x2="470" y2="293" stroke="#eaeef2" stroke-width="1"/>

  <text x="25"  y="314" class="label">➖  Lines Deleted</text>
  <text x="470" y="314" class="value" text-anchor="end">-0</text>
  <line x1="25" y1="321" x2="470" y2="321" stroke="#eaeef2" stroke-width="1"/>
  <text x="470" y="354" class="muted" text-anchor="end">Updated Wed, 13 May 2026 18:25:35 GMT</text>
</svg>